<?xml version="1.0" encoding="UTF-8"?>
<svg version="1.1" xmlns="http://www.w3.org/2000/svg" width="400" height="397">
<path d="M0 0 C132 0 264 0 400 0 C400 131.01 400 262.02 400 397 C268 397 136 397 0 397 C0 265.99 0 134.98 0 0 Z " fill="#EF0280" transform="translate(0,0)"/>
<path d="M0 0 C10.333125 -0.2165625 10.333125 -0.2165625 20.875 -0.4375 C23.0288623 -0.50122803 25.18272461 -0.56495605 27.40185547 -0.63061523 C44.31493029 -0.92303331 44.31493029 -0.92303331 51.39501953 5.09350586 C54.89794735 9.25449815 55.59078399 12.90973687 55.53515625 18.25 C54.54415502 23.34244426 51.26129996 27.0897679 48 31 C48.62648437 31.30164063 49.25296875 31.60328125 49.8984375 31.9140625 C53.59270188 33.82299465 55.39235048 36.21294276 57 40 C57.91396748 47.08621538 56.93877312 52.88571763 52.75 58.75 C46.61348879 63.13322229 40.9949836 63.41558003 33.69140625 63.29296875 C32.40453918 63.28843689 32.40453918 63.28843689 31.0916748 63.28381348 C27.91515921 63.26822649 24.73881634 63.22634316 21.5625 63.1875 C14.446875 63.125625 7.33125 63.06375 0 63 C0 42.21 0 21.42 0 0 Z " fill="#FDEFF6" transform="translate(39,198)"/>
<path d="M0 0 C10.333125 -0.0309375 10.333125 -0.0309375 20.875 -0.0625 C24.13673096 -0.07615601 24.13673096 -0.07615601 27.46435547 -0.09008789 C29.18196552 -0.09300765 30.89957625 -0.09555607 32.6171875 -0.09765625 C33.9621228 -0.1053302 33.9621228 -0.1053302 35.33422852 -0.11315918 C36.18670166 -0.11328003 37.0391748 -0.11340088 37.91748047 -0.11352539 C39.03000687 -0.11685631 39.03000687 -0.11685631 40.16500854 -0.12025452 C42 0 42 0 44 1 C44 1.66 44 2.32 44 3 C44.53625 3.061875 45.0725 3.12375 45.625 3.1875 C49.61360994 4.55202445 52.88366582 7.24792297 55.15234375 10.80859375 C57.13362054 15.93069642 57.03930756 22.27460549 55.08984375 27.38671875 C51.98840386 32.6222684 47.86707435 37.04430855 42 39 C39.86205475 39.0833804 37.72157991 39.10733747 35.58203125 39.09765625 C34.32841797 39.09443359 33.07480469 39.09121094 31.78320312 39.08789062 C30.47287109 39.07951172 29.16253906 39.07113281 27.8125 39.0625 C26.47721519 39.05748317 25.14192859 39.05292059 23.80664062 39.04882812 C20.5377412 39.03702704 17.26886498 39.01909136 14 39 C14 47.25 14 55.5 14 64 C9.38 64 4.76 64 0 64 C0 42.88 0 21.76 0 0 Z " fill="#FDEFF7" transform="translate(55,114)"/>
<path d="M0 0 C4.95 0 9.9 0 15 0 C15.33 11.55 15.66 23.1 16 35 C21.61 35.33 27.22 35.66 33 36 C33 24.12 33 12.24 33 0 C37.95 0 42.9 0 48 0 C48.12392654 7.54388488 48.21449726 15.08717254 48.2746582 22.63183594 C48.29974698 25.19639411 48.33382586 27.76088117 48.37719727 30.32519531 C48.438093 34.01905907 48.46626764 37.71197451 48.48828125 41.40625 C48.51408768 42.5461438 48.5398941 43.6860376 48.56648254 44.86047363 C48.5689139 51.81686077 47.72205733 56.69862508 43 62 C38.05088943 65.65291494 33.9800902 66.12236772 27.92578125 66.09765625 C26.90003242 66.09553383 26.90003242 66.09553383 25.8535614 66.09336853 C23.67316278 66.08777876 21.49286749 66.07522822 19.3125 66.0625 C17.83268378 66.05748367 16.35286594 66.052921 14.87304688 66.04882812 C11.24866443 66.03781271 7.6243423 66.02055512 4 66 C4 62.7 4 59.4 4 56 C12.91 56 21.82 56 31 56 C31.99 53.03 32.98 50.06 34 47 C31.84791016 47.03480469 31.84791016 47.03480469 29.65234375 47.0703125 C27.74740106 47.08908041 25.84245272 47.10727951 23.9375 47.125 C22.99455078 47.14175781 22.05160156 47.15851563 21.08007812 47.17578125 C14.17677369 47.2238879 8.49566589 47.22439786 3.125 42.4375 C2.42375 41.633125 1.7225 40.82875 1 40 C0.67 39.67 0.34 39.34 0 39 C-0.08865208 36.1156618 -0.11521296 33.25537842 -0.09765625 30.37109375 C-0.0962413 29.50686295 -0.09482635 28.64263214 -0.09336853 27.75221252 C-0.08775239 24.98060708 -0.07519719 22.2090812 -0.0625 19.4375 C-0.05748708 17.5631522 -0.05292381 15.68880315 -0.04882812 13.81445312 C-0.03777772 9.20960456 -0.0205023 4.60481579 0 0 Z " fill="#FDF0F7" transform="translate(298,214)"/>
<path d="M0 0 C4.64477144 -0.02472039 9.28950457 -0.04286968 13.93432617 -0.05493164 C15.51441108 -0.05996014 17.09449134 -0.06678378 18.67456055 -0.07543945 C20.94581246 -0.08756992 23.21700285 -0.09324313 25.48828125 -0.09765625 C26.19463211 -0.10281754 26.90098297 -0.10797882 27.6287384 -0.11329651 C30.70254391 -0.11364803 33.0590442 0.0196814 36 1 C36 1.66 36 2.32 36 3 C36.763125 3.226875 37.52625 3.45375 38.3125 3.6875 C41.73962279 5.36121113 42.42281408 6.5333847 44 10 C44.39524248 12.94046733 44.34992019 15.8384358 44.29296875 18.80078125 C44.28872391 19.63715622 44.28447906 20.47353119 44.28010559 21.33525085 C44.26337364 23.99466765 44.22573226 26.653314 44.1875 29.3125 C44.17244604 31.12043173 44.15875888 32.92837539 44.14648438 34.73632812 C44.11348816 39.15784689 44.06174428 43.57879302 44 48 C38.84055127 48.09920549 33.68166311 48.17162646 28.52148438 48.21972656 C26.76780521 48.2397871 25.01419247 48.26704251 23.26074219 48.30175781 C20.73355682 48.35052302 18.20725909 48.37302392 15.6796875 48.390625 C14.90132538 48.41127014 14.12296326 48.43191528 13.3210144 48.45318604 C8.09812226 48.45531751 5.12708977 47.48453462 1 44 C-0.375 41.25 -0.375 41.25 -1 39 C-1.66 39 -2.32 39 -3 39 C-4.26340119 35.20979642 -4.86742931 31.90690162 -4 28 C-1.29532304 23.85959639 1.89751664 20.73498891 6 18 C8.4519043 17.77294922 8.4519043 17.77294922 11.32421875 17.8046875 C12.86625977 17.81435547 12.86625977 17.81435547 14.43945312 17.82421875 C15.51130859 17.84097656 16.58316406 17.85773438 17.6875 17.875 C18.77095703 17.88402344 19.85441406 17.89304688 20.97070312 17.90234375 C23.6473571 17.9259266 26.32356797 17.95883874 29 18 C28.505 15.03 28.505 15.03 28 12 C18.76 12 9.52 12 0 12 C0 8.04 0 4.08 0 0 Z " fill="#FDECF5" transform="translate(143,130)"/>
<path d="M0 0 C4.5714698 -0.09943798 9.14229975 -0.17173349 13.71459961 -0.21972656 C15.26744565 -0.2397487 16.82021719 -0.26697517 18.37280273 -0.30175781 C20.61460832 -0.3506961 22.85541093 -0.37306168 25.09765625 -0.390625 C25.78336197 -0.41127014 26.46906769 -0.43191528 27.17555237 -0.45318604 C34.13416699 -0.45637068 37.9831549 2.12154093 42.90698242 6.70751953 C45.59503472 10.93603618 45.65054289 13.78562329 45.48828125 18.6796875 C45.48120651 19.49245148 45.47413177 20.30521545 45.46684265 21.14260864 C45.43900674 23.72103623 45.37629411 26.29723662 45.3125 28.875 C45.28740291 30.63017682 45.26459221 32.38538791 45.24414062 34.140625 C45.18921623 38.42793247 45.10302347 42.71358956 45 47 C39.53743725 47.12381149 34.07569512 47.21443826 28.61206055 47.2746582 C26.75449391 47.29976702 24.89702573 47.33386134 23.03979492 47.37719727 C20.36612642 47.43801124 17.69376635 47.4662452 15.01953125 47.48828125 C13.7786248 47.52699089 13.7786248 47.52699089 12.51264954 47.56648254 C8.13854338 47.5685992 6.54402129 47.44939129 3.04833984 44.56176758 C2.3723877 43.71638428 1.69643555 42.87100098 1 42 C0.40832031 41.51273438 -0.18335938 41.02546875 -0.79296875 40.5234375 C-2.58380202 38.2631625 -2.3630693 36.46466064 -2.3125 33.625 C-2.30863281 32.68914062 -2.30476562 31.75328125 -2.30078125 30.7890625 C-1.82576497 26.38436613 -0.83055816 23.76666907 2.4375 20.75 C6.10911762 18.24255382 8.76748539 17.8772687 13.10546875 17.90234375 C14.08837891 17.90556641 15.07128906 17.90878906 16.08398438 17.91210938 C17.62022461 17.92467773 17.62022461 17.92467773 19.1875 17.9375 C20.74114258 17.94426758 20.74114258 17.94426758 22.32617188 17.95117188 C24.88417266 17.9629599 27.44205733 17.97941485 30 18 C29.34 16.02 28.68 14.04 28 12 C14.14 11.505 14.14 11.505 0 11 C0 7.37 0 3.74 0 0 Z " fill="#FDF1F7" transform="translate(152,214)"/>
<path d="M0 0 C4.62 0 9.24 0 14 0 C14.33 11.55 14.66 23.1 15 35 C20.61 35.33 26.22 35.66 32 36 C32 24.12 32 12.24 32 0 C36.95 0 41.9 0 47 0 C47 15.51 47 31.02 47 47 C40.73 47.165 34.46 47.33 28 47.5 C25.05513672 47.60924805 25.05513672 47.60924805 22.05078125 47.72070312 C7.83914275 48.05143892 7.83914275 48.05143892 2.78125 44.21875 C-2.43834974 37.33058969 -0.8087296 27.15366531 -0.5 19 C-0.45982874 17.1576293 -0.42333436 15.31517454 -0.390625 13.47265625 C-0.30289576 8.97968084 -0.16510187 4.4907708 0 0 Z " fill="#FDF0F7" transform="translate(206,214)"/>
<path d="M0 0 C8.91 -0.185625 8.91 -0.185625 18 -0.375 C19.85882813 -0.42962402 21.71765625 -0.48424805 23.6328125 -0.54052734 C38.11428601 -0.79654597 38.11428601 -0.79654597 43.72265625 3.91943359 C47.09161526 9.40687027 47.2904145 15.73013393 47.1953125 22 C47.1924826 22.7211499 47.18965271 23.4422998 47.18673706 24.18530273 C47.17566696 26.45704747 47.15058895 28.72837727 47.125 31 C47.1149531 32.55337967 47.10583027 34.1067656 47.09765625 35.66015625 C47.07748426 39.44038718 47.03831348 43.21973688 47 47 C42.38 47 37.76 47 33 47 C32.97494385 45.97527588 32.9498877 44.95055176 32.92407227 43.89477539 C32.83015516 40.10590324 32.72989683 36.31722119 32.62768555 32.52856445 C32.58427703 30.88635697 32.54260642 29.24410261 32.50268555 27.60180664 C32.4451256 25.24611255 32.38139108 22.89065572 32.31640625 20.53515625 C32.29969376 19.79660904 32.28298126 19.05806183 32.26576233 18.2971344 C32.46451987 14.85699373 32.46451987 14.85699373 31 12 C25.39 11.67 19.78 11.34 14 11 C14 22.88 14 34.76 14 47 C9.38 47 4.76 47 0 47 C0 31.49 0 15.98 0 0 Z " fill="#FDF5F9" transform="translate(196,130)"/>
<path d="M0 0 C1.53333984 0.00676758 1.53333984 0.00676758 3.09765625 0.01367188 C5.60679623 0.02539683 8.11590586 0.04333035 10.625 0.0625 C10.625 3.6925 10.625 7.3225 10.625 11.0625 C9.15546875 11.09988281 7.6859375 11.13726562 6.171875 11.17578125 C4.23955787 11.24144251 2.30726735 11.3078898 0.375 11.375 C-0.59308594 11.39755859 -1.56117188 11.42011719 -2.55859375 11.44335938 C-3.49316406 11.47880859 -4.42773438 11.51425781 -5.390625 11.55078125 C-6.24946289 11.57696533 -7.10830078 11.60314941 -7.99316406 11.63012695 C-10.81339289 12.14208116 -12.1745813 13.28125099 -14.375 15.0625 C-15.035 15.0625 -15.695 15.0625 -16.375 15.0625 C-16.375 16.0525 -16.375 17.0425 -16.375 18.0625 C-7.465 18.0625 1.445 18.0625 10.625 18.0625 C10.625 21.6925 10.625 25.3225 10.625 29.0625 C1.385 29.0625 -7.855 29.0625 -17.375 29.0625 C-14.11052849 34.12474433 -14.11052849 34.12474433 -10.7109375 34.83984375 C-9.61007812 34.91332031 -8.50921875 34.98679688 -7.375 35.0625 C-6.65989258 35.11422363 -5.94478516 35.16594727 -5.20800781 35.21923828 C-2.80607354 35.38198849 -0.40457397 35.50803109 2 35.625 C2.83144531 35.66818359 3.66289062 35.71136719 4.51953125 35.75585938 C6.55453228 35.86111805 8.58974703 35.96223072 10.625 36.0625 C10.65187279 37.87492052 10.67133715 39.68745233 10.6875 41.5 C10.69910156 42.50933594 10.71070313 43.51867187 10.72265625 44.55859375 C10.625 47.0625 10.625 47.0625 9.625 48.0625 C5.88262998 48.34356102 2.12666221 48.29435411 -1.625 48.3125 C-2.67558594 48.333125 -3.72617187 48.35375 -4.80859375 48.375 C-6.33419922 48.38273437 -6.33419922 48.38273437 -7.890625 48.390625 C-9.28716309 48.40464355 -9.28716309 48.40464355 -10.71191406 48.41894531 C-13.88046862 47.99484468 -15.72795845 46.80742083 -18.375 45.0625 C-19.179375 44.835625 -19.98375 44.60875 -20.8125 44.375 C-26.28477879 41.5721255 -30.34209977 34.70944507 -32.375 29.0625 C-33.1453141 22.72880626 -32.72961218 16.59816367 -29.375 11.0625 C-20.68623955 0.65812443 -13.0527341 -0.10947454 0 0 Z " fill="#FDF1F7" transform="translate(282.375,129.9375)"/>
<path d="M0 0 C1.60488281 0.00483398 1.60488281 0.00483398 3.2421875 0.00976562 C4.35335937 0.01814453 5.46453125 0.02652344 6.609375 0.03515625 C8.29933594 0.04192383 8.29933594 0.04192383 10.0234375 0.04882812 C12.80210606 0.06060214 15.58074727 0.07853725 18.359375 0.09765625 C18.359375 3.72765625 18.359375 7.35765625 18.359375 11.09765625 C17.04582031 11.14664063 15.73226562 11.195625 14.37890625 11.24609375 C12.64320905 11.32115093 10.90753297 11.39669748 9.171875 11.47265625 C8.30755859 11.50359375 7.44324219 11.53453125 6.55273438 11.56640625 C0.20301475 11.80331838 0.20301475 11.80331838 -5.640625 14.09765625 C-6.630625 15.41765625 -7.620625 16.73765625 -8.640625 18.09765625 C0.269375 18.09765625 9.179375 18.09765625 18.359375 18.09765625 C18.359375 21.72765625 18.359375 25.35765625 18.359375 29.09765625 C9.449375 29.09765625 0.539375 29.09765625 -8.640625 29.09765625 C-5.37615349 34.15990058 -5.37615349 34.15990058 -1.9765625 34.875 C-0.87570313 34.94847656 0.22515625 35.02195313 1.359375 35.09765625 C2.07448242 35.14937988 2.78958984 35.20110352 3.52636719 35.25439453 C5.92830146 35.41714474 8.32980103 35.54318734 10.734375 35.66015625 C11.56582031 35.70333984 12.39726562 35.74652344 13.25390625 35.79101562 C15.28890728 35.8962743 17.32412203 35.99738697 19.359375 36.09765625 C19.359375 39.72765625 19.359375 43.35765625 19.359375 47.09765625 C15.71308213 47.17922204 12.06864668 47.23843129 8.421875 47.28515625 C7.40029297 47.31029297 6.37871094 47.33542969 5.32617188 47.36132812 C-2.37958971 47.43518526 -8.70530206 46.42307435 -15.390625 42.47265625 C-21.31638579 36.21768653 -23.9667694 29.16847225 -23.85546875 20.66015625 C-23.31487027 14.21229076 -19.99770219 9.65738819 -15.640625 5.09765625 C-10.25173822 1.02849684 -6.64894153 -0.03536671 0 0 Z " fill="#FDEFF7" transform="translate(123.640625,213.90234375)"/>
<path d="M0 0 C10.83984375 -0.09765625 10.83984375 -0.09765625 14 0 C15 1 15 1 15.09765625 4.37890625 C15.09098369 5.77347077 15.07902532 7.16801743 15.0625 8.5625 C15.05798828 9.27341797 15.05347656 9.98433594 15.04882812 10.71679688 C15.03700864 12.47790013 15.01907263 14.23896036 15 16 C18.3 16 21.6 16 25 16 C25 19.96 25 23.92 25 28 C21.7 28 18.4 28 15 28 C15.33 35.59 15.66 43.18 16 51 C18.97 51.33 21.94 51.66 25 52 C25 55.96 25 59.92 25 64 C10.14110265 65.03266468 10.14110265 65.03266468 5.75 61.375 C4.296875 59.8984375 4.296875 59.8984375 3 58 C2.45214844 57.2059375 1.90429688 56.411875 1.33984375 55.59375 C-0.69101196 50.14655684 -0.31424013 44.88355163 -0.1875 39.125 C-0.17396484 37.9596875 -0.16042969 36.794375 -0.14648438 35.59375 C-0.11125821 32.72868882 -0.06199715 29.86458623 0 27 C-2.31 27 -4.62 27 -7 27 C-7 23.37 -7 19.74 -7 16 C-4.69 16 -2.38 16 0 16 C0 10.72 0 5.44 0 0 Z " fill="#FDEBF4" transform="translate(305,114)"/>
<path d="M0 0 C4.62 0 9.24 0 14 0 C14 5.28 14 10.56 14 16 C17.63 16 21.26 16 25 16 C25 19.63 25 23.26 25 27 C21.37 27 17.74 27 14 27 C14.14055641 30.77109855 14.28720986 34.54178769 14.4375 38.3125 C14.47681641 39.38435547 14.51613281 40.45621094 14.55664062 41.56054688 C14.59853516 42.58857422 14.64042969 43.61660156 14.68359375 44.67578125 C14.72025146 45.62364502 14.75690918 46.57150879 14.79467773 47.5480957 C14.91430187 50.136171 14.91430187 50.136171 16 53 C18.64 53 21.28 53 24 53 C24 56.3 24 59.6 24 63 C9.77788502 63.91210714 9.77788502 63.91210714 5.6015625 61.76953125 C4 60.1875 4 60.1875 2 57 C2 56.01 2 55.02 2 54 C1.34 54 0.68 54 0 54 C0 45.09 0 36.18 0 27 C-2.31 27 -4.62 27 -7 27 C-7 23.37 -7 19.74 -7 16 C-4.69 16 -2.38 16 0 16 C0 10.72 0 5.44 0 0 Z " fill="#FDF3F9" transform="translate(266,198)"/>
<path d="M0 0 C4.95 0 9.9 0 15 0 C15.02255425 8.1969097 15.04091696 16.39379545 15.05181217 24.59072781 C15.0570402 28.39651577 15.06413638 32.20228148 15.07543945 36.00805664 C15.0862712 39.67792544 15.09227744 43.34777278 15.09487724 47.01765633 C15.09673097 48.42074992 15.1003506 49.82384229 15.10573006 51.2269268 C15.11294419 53.1856968 15.11340809 55.1444882 15.11352539 57.10327148 C15.115746 58.22023911 15.11796661 59.33720673 15.12025452 60.48802185 C15 63 15 63 14 64 C9.38 64 4.76 64 0 64 C0 42.88 0 21.76 0 0 Z " fill="#FDEAF4" transform="translate(118,114)"/>
<path d="M0 0 C3.56295812 -0.08104454 7.12406707 -0.14052442 10.6875 -0.1875 C11.69490234 -0.21263672 12.70230469 -0.23777344 13.74023438 -0.26367188 C23.32487588 -0.35856932 23.32487588 -0.35856932 27 3 C28.0625 6.375 28.0625 6.375 28 10 C26.23358828 12.80189446 24.96950178 14.51524911 22 16 C20.3325394 16.08426094 18.66174813 16.10725143 16.9921875 16.09765625 C16.00605469 16.09443359 15.01992187 16.09121094 14.00390625 16.08789062 C12.97136719 16.07951172 11.93882813 16.07113281 10.875 16.0625 C9.31458984 16.05573242 9.31458984 16.05573242 7.72265625 16.04882812 C5.14841313 16.03701967 2.57419947 16.01908385 0 16 C0 10.72 0 5.44 0 0 Z " fill="#F00984" transform="translate(54,234)"/>
<path d="M0 0 C3.56331377 -0.10807017 7.1233422 -0.18735316 10.6875 -0.25 C12.19860352 -0.30027344 12.19860352 -0.30027344 13.74023438 -0.3515625 C21.20809093 -0.45014807 21.20809093 -0.45014807 25.16796875 1.80078125 C27 4 27 4 27.625 7.4375 C26.81252338 12.06861672 25.80682144 13.23993711 22 16 C18.21014758 16.61106132 14.51354569 16.47161258 10.6875 16.3125 C9.66076172 16.28994141 8.63402344 16.26738281 7.57617188 16.24414062 C5.05015334 16.18539601 2.52488776 16.09572026 0 16 C0 10.72 0 5.44 0 0 Z " fill="#EF0682" transform="translate(70,126)"/>
<path d="M0 0 C3.79208758 -0.08061918 7.58247778 -0.14031815 11.375 -0.1875 C12.99535156 -0.22520508 12.99535156 -0.22520508 14.6484375 -0.26367188 C15.6796875 -0.27333984 16.7109375 -0.28300781 17.7734375 -0.29296875 C18.72653809 -0.3086792 19.67963867 -0.32438965 20.66162109 -0.34057617 C21.81911865 -0.17199097 21.81911865 -0.17199097 23 0 C25.46324069 3.69486103 25.38991688 5.63293092 25 10 C23.79956055 11.70043945 23.79956055 11.70043945 22 13 C19.63989258 13.34057617 19.63989258 13.34057617 16.89453125 13.29296875 C15.91162109 13.28330078 14.92871094 13.27363281 13.91601562 13.26367188 C12.89185547 13.23853516 11.86769531 13.21339844 10.8125 13.1875 C9.77673828 13.17396484 8.74097656 13.16042969 7.67382812 13.14648438 C5.11566388 13.11111805 2.55776671 13.05731096 0 13 C0 8.71 0 4.42 0 0 Z " fill="#F00D86" transform="translate(54,209)"/>
<path d="M0 0 C4.87731839 1.44513138 4.87731839 1.44513138 6.375 4 C6.875 6.875 6.875 6.875 6.375 10 C3.89377621 13.35694984 2.43134831 14.78441871 -1.6875 15.625 C-4.625 15 -4.625 15 -7 12.8125 C-8.78890189 9.71632365 -9.4082888 8.48128355 -8.625 5 C-5.89824906 1.19907445 -4.75672794 0 0 0 Z " fill="#F560AF" transform="translate(353.625,194)"/>
<path d="M0 0 C8.91 0 17.82 0 27 0 C26.01 0.495 26.01 0.495 25 1 C24.34444881 3.52733235 24.34444881 3.52733235 24 6 C25.32 6.33 26.64 6.66 28 7 C25.14557247 7.05437005 22.29219924 7.09384974 19.4375 7.125 C18.63763672 7.14175781 17.83777344 7.15851563 17.01367188 7.17578125 C11.35435997 7.22197971 5.71970544 7.10557841 1.0625 3.5 C0 2 0 2 0 0 Z " fill="#F11A8C" transform="translate(265,159)"/>
<path d="M0 0 C2.81256281 -0.02684312 5.62487241 -0.04676188 8.4375 -0.0625 C9.23994141 -0.07087891 10.04238281 -0.07925781 10.86914062 -0.08789062 C12.91295221 -0.0965143 14.95683902 -0.0522815 17 0 C18 1 18 1 18.0625 4.5625 C18.041875 5.696875 18.02125 6.83125 18 8 C15.20807795 8.05380578 12.4171859 8.09357669 9.625 8.125 C8.8309375 8.14175781 8.036875 8.15851563 7.21875 8.17578125 C5.14507985 8.19335473 3.07116759 8.10335168 1 8 C0.34 7.34 -0.32 6.68 -1 6 C-0.625 2.875 -0.625 2.875 0 0 Z " fill="#EF0682" transform="translate(155,159)"/>
<path d="M0 0 C1.58206057 0.00667536 3.16410534 0.0186375 4.74609375 0.03515625 C5.55240234 0.03966797 6.35871094 0.04417969 7.18945312 0.04882812 C9.18753131 0.06065107 11.18557158 0.07858711 13.18359375 0.09765625 C13.18359375 2.73765625 13.18359375 5.37765625 13.18359375 8.09765625 C7.24359375 8.09765625 1.30359375 8.09765625 -4.81640625 8.09765625 C-4.81640625 0.12324479 -4.81640625 0.12324479 0 0 Z " fill="#F22692" transform="translate(168.81640625,242.90234375)"/>
<path d="M0 0 C7.26 0.33 14.52 0.66 22 1 C22 4.63 22 8.26 22 12 C19.52401267 14.47598733 12.89139842 13.1855126 9.5625 13.1875 C7.94891602 13.20586914 7.94891602 13.20586914 6.30273438 13.22460938 C5.27599609 13.22654297 4.24925781 13.22847656 3.19140625 13.23046875 C1.77130249 13.23663208 1.77130249 13.23663208 0.32250977 13.24291992 C-2 13 -2 13 -4 11 C3.92 11 11.84 11 20 11 C20 8.03 20 5.06 20 2 C18.08574219 2.03480469 18.08574219 2.03480469 16.1328125 2.0703125 C14.4635475 2.08906829 12.7942762 2.10726869 11.125 2.125 C9.86236328 2.15013672 9.86236328 2.15013672 8.57421875 2.17578125 C7.76855469 2.18222656 6.96289062 2.18867188 6.1328125 2.1953125 C5.01737061 2.21102295 5.01737061 2.21102295 3.87939453 2.22705078 C2 2 2 2 0 0 Z " fill="#F89CCE" transform="translate(271,165)"/>
<path d="M0 0 C4.87731839 1.44513138 4.87731839 1.44513138 6.375 4 C6.6875 7.0625 6.6875 7.0625 6.375 10 C5.715 10.66 5.055 11.32 4.375 12 C3.375 10 3.375 10 3.5 7.5 C3.45875 6.675 3.4175 5.85 3.375 5 C0.59385944 2.66608797 0.59385944 2.66608797 -2.3125 3.375 C-3.075625 3.58125 -3.83875 3.7875 -4.625 4 C-4.625 4.33 -4.625 4.66 -4.625 5 C-3.635 5 -2.645 5 -1.625 5 C-1.955 5.66 -2.285 6.32 -2.625 7 C-1.635 7 -0.645 7 0.375 7 C0.375 7.66 0.375 8.32 0.375 9 C-0.615 9 -1.605 9 -2.625 9 C-2.625 10.65 -2.625 12.3 -2.625 14 C-4.5 13.6875 -4.5 13.6875 -6.625 13 C-8.80538095 9.72942857 -9.25746755 8.79480531 -8.625 5 C-5.89824906 1.19907445 -4.75672794 0 0 0 Z " fill="#F781C0" transform="translate(353.625,194)"/>
<path d="M0 0 C2.81256281 -0.02684312 5.62487241 -0.04676188 8.4375 -0.0625 C9.23994141 -0.07087891 10.04238281 -0.07925781 10.86914062 -0.08789062 C12.91295221 -0.0965143 14.95683902 -0.0522815 17 0 C18 1 18 1 18 8 C12.39 8 6.78 8 1 8 C1 7.67 1 7.34 1 7 C5.95 7 10.9 7 16 7 C16 5.35 16 3.7 16 2 C10.72 2 5.44 2 0 2 C0 1.34 0 0.68 0 0 Z " fill="#F453A8" transform="translate(155,159)"/>
<path d="M0 0 C5.45454545 0.45454545 5.45454545 0.45454545 8 3 C8.125 5.625 8.125 5.625 8 8 C7.01 8 6.02 8 5 8 C5 6.02 5 4.04 5 2 C3.35 2.33 1.7 2.66 0 3 C-0.33 4.98 -0.66 6.96 -1 9 C-1.66 8.67 -2.32 8.34 -3 8 C-2.25 2.25 -2.25 2.25 0 0 Z " fill="#F12E96" transform="translate(350,196)"/>
<path d="M0 0 C0.66 0.33 1.32 0.66 2 1 C1.01 2.485 1.01 2.485 0 4 C7.26 4.33 14.52 4.66 22 5 C22 5.33 22 5.66 22 6 C13.42 6 4.84 6 -4 6 C-4 5.01 -4 4.02 -4 3 C-2 1.3125 -2 1.3125 0 0 Z " fill="#F22993" transform="translate(270,142)"/>
<path d="M0 0 C0.66 0.33 1.32 0.66 2 1 C0.90344712 2.31886772 -0.20253423 3.62990057 -1.3125 4.9375 C-1.92738281 5.66839844 -2.54226563 6.39929688 -3.17578125 7.15234375 C-5 9 -5 9 -8 10 C-6.34908222 5.70761377 -3.26245434 3.1206085 0 0 Z " fill="#F9C3E0" transform="translate(261,133)"/>
<path d="M0 0 C0.66 0.99 1.32 1.98 2 3 C-0.57784846 5.64752004 -2.91648098 7.94432065 -6 10 C-6.66 9.34 -7.32 8.68 -8 8 C-7.50628906 7.59007812 -7.01257813 7.18015625 -6.50390625 6.7578125 C-5.86324219 6.21898437 -5.22257812 5.68015625 -4.5625 5.125 C-3.92441406 4.59132812 -3.28632812 4.05765625 -2.62890625 3.5078125 C-0.89194996 2.0777243 -0.89194996 2.0777243 0 0 Z " fill="#F2399B" transform="translate(108,143)"/>
</svg>
